<svg width="24" height="24" viewBox="0 0 24 24" fill="none" xmlns="http://www.w3.org/2000/svg">
<path d="M1.34375 18.2523C1.43492 18.2523 1.52235 18.216 1.58682 18.1516C1.65128 18.0871 1.6875 17.9997 1.6875 17.9085V15.7676C1.6875 15.34 1.95631 14.9522 2.35713 14.8024L3.04325 14.5446C3.30095 14.8445 3.62033 15.0854 3.97959 15.2506C4.33886 15.4159 4.72955 15.5017 5.125 15.5023C5.52035 15.5017 5.91092 15.4158 6.27006 15.2505C6.6292 15.0853 6.94846 14.8445 7.20606 14.5446L7.79456 14.7653C7.6032 14.9467 7.4507 15.1651 7.34635 15.4072C7.24199 15.6494 7.18795 15.9102 7.1875 16.1739V17.9078C7.1875 17.999 7.22372 18.0864 7.28818 18.1509C7.35265 18.2153 7.44008 18.2516 7.53125 18.2516C7.62242 18.2516 7.70985 18.2153 7.77432 18.1509C7.83878 18.0864 7.875 17.999 7.875 17.9078V16.1739C7.875 15.7298 8.09981 15.3249 8.47656 15.0898L10.0049 14.1369C10.5246 14.6793 11.2417 15.0093 11.9993 15.0093C12.7569 15.0093 13.4733 14.6793 13.9931 14.1369L15.5221 15.0891C15.8995 15.3249 16.125 15.7305 16.125 16.1746V17.9085C16.125 17.9997 16.1612 18.0871 16.2257 18.1516C16.2901 18.216 16.3776 18.2523 16.4688 18.2523C16.5599 18.2523 16.6474 18.216 16.7118 18.1516C16.7763 18.0871 16.8125 17.9997 16.8125 17.9085V16.1746C16.8125 15.6308 16.5863 15.1317 16.2047 14.7659L16.7933 14.5453C17.051 14.8452 17.3703 15.086 17.7296 15.2513C18.0889 15.4166 18.4795 15.5024 18.875 15.5029C19.2703 15.5024 19.6609 15.4165 20.0201 15.2512C20.3792 15.086 20.6985 14.8452 20.9561 14.5453L21.6429 14.8031C22.0437 14.9523 22.3125 15.34 22.3125 15.7676V17.9085C22.3125 17.9997 22.3487 18.0871 22.4132 18.1516C22.4776 18.216 22.5651 18.2523 22.6562 18.2523C22.7474 18.2523 22.8349 18.216 22.8993 18.1516C22.9638 18.0871 23 17.9997 23 17.9085V15.7676C22.999 15.418 22.8918 15.0769 22.6927 14.7895C22.4936 14.5021 22.2119 14.282 21.8849 14.1582L20.25 13.5449V12.7529C20.4653 12.5612 20.6377 12.3262 20.756 12.0634C20.8744 11.8005 20.936 11.5157 20.9368 11.2274V10.5914C20.9749 10.5503 21.0018 10.5001 21.0152 10.4457L21.3356 8.95931C21.3926 8.64719 21.3232 8.333 21.141 8.07312C20.9588 7.81325 20.6859 7.64206 20.3731 7.58981L18.4137 7.26325C18.1256 7.21511 17.8299 7.27792 17.5863 7.43904C17.3426 7.60016 17.1691 7.84761 17.1006 8.13156C16.8575 8.20965 16.6526 8.37628 16.5266 8.59839C16.4007 8.8205 16.3628 9.08185 16.4206 9.33056L16.7307 10.4629C16.7467 10.5134 16.7745 10.5593 16.8118 10.5969V11.226C16.8118 11.8337 17.0806 12.3748 17.5 12.7529V13.5436L15.8665 14.1568C15.7692 14.1929 15.6756 14.238 15.5867 14.2916C15.5798 14.2957 15.5757 14.3026 15.5688 14.3074L15.2141 14.0867C15.4402 13.9803 15.6257 13.8033 15.7424 13.5823C15.8591 13.3613 15.9007 13.1083 15.861 12.8616C15.6948 11.8241 15.6111 10.7752 15.6108 9.7245V8.586C15.6097 7.63527 15.2315 6.72379 14.5592 6.05152C13.887 5.37925 12.9755 5.00109 12.0247 5C11.074 5.00109 10.1625 5.37925 9.49027 6.05152C8.818 6.72379 8.43984 7.63527 8.43875 8.586V9.72519C8.43875 10.7716 8.35419 11.8269 8.1885 12.8623C8.13488 13.1964 8.22975 13.536 8.44906 13.7938C8.55012 13.9121 8.67387 14.0042 8.80862 14.0723L8.42912 14.3088C8.42225 14.3039 8.41813 14.2964 8.41056 14.2916C8.3227 14.2388 8.23019 14.1941 8.13419 14.1582L6.5 13.5449V12.7529C6.71527 12.5612 6.8877 12.3262 7.00605 12.0634C7.12439 11.8005 7.18598 11.5157 7.18681 11.2274V10.5914C7.22487 10.5503 7.25184 10.5001 7.26519 10.4457L7.58556 8.95931C7.64263 8.64719 7.57319 8.333 7.391 8.07312C7.20881 7.81325 6.93588 7.64206 6.62306 7.58981L4.66437 7.26394C4.49846 7.23631 4.32851 7.24511 4.16634 7.28975C4.00417 7.33439 3.85366 7.41379 3.72525 7.52244C3.53825 7.68056 3.40831 7.89163 3.35056 8.13225C3.10746 8.21034 2.9026 8.37697 2.77664 8.59908C2.65069 8.82119 2.61285 9.08254 2.67063 9.33125L2.98069 10.4636C2.99674 10.514 3.02455 10.56 3.06181 10.5976V11.2267C3.06181 11.8344 3.33062 12.3755 3.75 12.7536V13.5442L2.11581 14.1575C1.78869 14.2814 1.50688 14.5016 1.30765 14.7891C1.10841 15.0766 1.00113 15.4178 1 15.7676L1 17.9085C1 17.9997 1.03622 18.0871 1.10068 18.1516C1.16515 18.216 1.25258 18.2523 1.34375 18.2523ZM17.1542 8.894C17.1849 8.85573 17.2239 8.82486 17.2681 8.80368C17.3124 8.78249 17.3609 8.77154 17.4099 8.77162C17.5997 8.77162 17.7537 8.59631 17.7537 8.40587C17.7533 8.33748 17.7679 8.26983 17.7965 8.20769C17.8251 8.14555 17.8669 8.09042 17.9191 8.04619C17.9712 8.00196 18.0325 7.96969 18.0984 7.95165C18.1644 7.93362 18.2335 7.93026 18.3009 7.94181L20.2603 8.26838C20.3241 8.27874 20.3852 8.30185 20.4399 8.33635C20.4946 8.37084 20.5418 8.416 20.5786 8.46913C20.6542 8.57638 20.6824 8.707 20.6611 8.82525L20.4948 9.59731L20.3834 9.45912C20.3512 9.41908 20.3105 9.38675 20.2642 9.3645C20.218 9.34225 20.1673 9.33066 20.1159 9.33056H17.6231C17.5716 9.33055 17.5208 9.3421 17.4744 9.36435C17.428 9.3866 17.3872 9.41899 17.3549 9.45912L17.2154 9.63306L17.0875 9.16831C17.0776 9.1205 17.0785 9.0711 17.09 9.02366C17.1016 8.97623 17.1235 8.93194 17.1542 8.894ZM17.4993 10.379L17.7881 10.0187H19.9516L20.2493 10.3879V11.2281C20.2488 11.5155 20.1579 11.7955 19.9895 12.0285C19.8211 12.2614 19.5837 12.4355 19.3109 12.5261L19.2964 12.5309C19.0208 12.6203 18.7231 12.6202 18.4474 12.5288L18.446 12.5281C18.3042 12.481 18.1711 12.4108 18.0521 12.3205L18.0459 12.3184C17.8767 12.1913 17.7393 12.0267 17.6444 11.8375C17.5496 11.6483 17.4999 11.4397 17.4993 11.2281V10.379ZM17.9648 14.1052C18.0302 14.0806 18.0866 14.0367 18.1264 13.9792C18.1662 13.9217 18.1875 13.8534 18.1875 13.7835V13.1696C18.2267 13.184 18.2679 13.1895 18.3071 13.2012C18.3718 13.2198 18.4343 13.2404 18.5017 13.2527C18.5931 13.2699 18.6859 13.2761 18.7788 13.2809C18.8111 13.2823 18.8413 13.2906 18.8743 13.2906C18.9039 13.2906 18.9307 13.283 18.9603 13.2816C19.0579 13.2775 19.1548 13.2699 19.2504 13.2521C19.3088 13.2411 19.3645 13.2232 19.4216 13.2074C19.4683 13.1943 19.5171 13.1868 19.5632 13.1703V13.7835C19.5632 13.8534 19.5845 13.9217 19.6243 13.9792C19.6641 14.0367 19.7205 14.0806 19.7859 14.1052L20.2541 14.2806C19.8763 14.6226 19.3853 14.8126 18.8757 14.8141C18.3601 14.8141 17.8713 14.6181 17.4966 14.2806L17.9648 14.1052ZM12 14.3225C11.4775 14.3225 10.9791 14.1156 10.5975 13.7684L10.9646 13.5394C11.0134 13.5083 11.0533 13.4651 11.0805 13.414C11.1077 13.363 11.1213 13.3058 11.12 13.2479H11.1262V12.5096C11.3991 12.6072 11.6886 12.6704 11.9945 12.6704C12.3032 12.6704 12.5954 12.6072 12.8704 12.5075V13.2486H12.8772C12.8772 13.3634 12.9288 13.4755 13.0333 13.5401L13.4018 13.7698C13.019 14.1211 12.5196 14.318 12 14.3225ZM10.0949 10.082V9.64819C10.0949 9.10438 10.4181 8.619 10.9007 8.3825C11.7067 8.86258 12.6266 9.1178 13.5647 9.12156L13.7284 9.12637C13.7854 9.12637 13.8398 9.13531 13.8948 9.14287V10.082C13.8948 11.1297 13.0423 11.9823 11.9952 11.9823C10.9481 11.9823 10.0949 11.1297 10.0949 10.082ZM15.1824 12.9709C15.1933 13.0376 15.1895 13.1059 15.1713 13.1711C15.1531 13.2362 15.121 13.2966 15.0771 13.348C15.0332 13.3994 14.9786 13.4407 14.9171 13.4689C14.8556 13.4971 14.7888 13.5115 14.7211 13.5113H14.2894L13.5586 13.0561V12.1294C13.8756 11.8901 14.1329 11.5807 14.3105 11.2254C14.4881 10.8701 14.5811 10.4785 14.5823 10.0813V9.49281C14.7858 9.70525 14.9129 9.99263 14.9129 10.3096C14.9129 10.3653 14.9294 10.4161 14.9528 10.4629C14.9778 11.3028 15.0545 12.1404 15.1824 12.9709ZM9.12625 9.72519V8.586C9.12625 6.98756 10.4263 5.6875 12.0247 5.6875C13.6232 5.6875 14.9233 6.98756 14.9233 8.586V8.88094C14.5931 8.59826 14.1733 8.44186 13.7387 8.43956L13.5758 8.43475C12.6004 8.4373 11.6495 8.12933 10.8608 7.55544C10.8244 7.52869 10.783 7.50944 10.7391 7.4988C10.6952 7.48815 10.6496 7.48633 10.6049 7.49342C10.5603 7.50052 10.5175 7.5164 10.4791 7.54015C10.4406 7.56389 10.4073 7.59502 10.3809 7.63175C10.3521 7.67201 10.3325 7.71817 10.3235 7.76691C10.3146 7.81564 10.3166 7.86575 10.3294 7.91362C10.0671 8.0941 9.84899 8.33145 9.69126 8.60798C9.53353 8.88451 9.44027 9.19308 9.41844 9.51069C9.41569 9.52856 9.40744 9.54506 9.40744 9.56431V10.0827C9.40744 10.9228 9.8165 11.6639 10.4387 12.1369V13.0568L9.70788 13.5119H9.32769C9.26009 13.512 9.19328 13.4974 9.1319 13.4691C9.07051 13.4408 9.01602 13.3994 8.9722 13.348C8.92838 13.2965 8.89628 13.2361 8.87812 13.171C8.85997 13.1059 8.85619 13.0376 8.86706 12.9709C9.03963 11.8997 9.12625 10.8073 9.12625 9.72519ZM3.40419 8.894C3.43491 8.85573 3.47385 8.82486 3.51812 8.80368C3.56239 8.78249 3.61086 8.77154 3.65994 8.77162C3.84969 8.77162 4.00369 8.59631 4.00369 8.40587C4.00331 8.33748 4.01792 8.26983 4.04649 8.20769C4.07506 8.14555 4.1169 8.09042 4.16906 8.04619C4.22123 8.00196 4.28245 7.96969 4.34843 7.95165C4.4144 7.93362 4.48352 7.93026 4.55094 7.94181L6.51031 8.26838C6.57413 8.27874 6.63521 8.30185 6.6899 8.33635C6.74459 8.37084 6.79177 8.416 6.82862 8.46913C6.90425 8.57638 6.93244 8.707 6.91112 8.82525L6.74475 9.59731L6.63338 9.45912C6.60133 9.41897 6.56064 9.38656 6.51434 9.3643C6.46804 9.34204 6.41731 9.33051 6.36594 9.33056H3.87306C3.8216 9.33055 3.77079 9.3421 3.72438 9.36435C3.67797 9.3866 3.63715 9.41899 3.60494 9.45912L3.46537 9.63306L3.3375 9.16831C3.32763 9.1205 3.3285 9.0711 3.34003 9.02366C3.35156 8.97623 3.37347 8.93194 3.40419 8.894ZM3.74931 10.379L4.03806 10.0187H6.20162L6.49931 10.3879V11.2281C6.49931 11.6749 6.28206 12.0682 5.95138 12.3198L5.94931 12.3205C5.83148 12.4099 5.6998 12.4793 5.5595 12.5261L5.54712 12.5302C5.27281 12.6196 4.97719 12.6196 4.70356 12.5309L4.69119 12.5268C4.55092 12.4802 4.41923 12.411 4.30137 12.3219L4.29931 12.3212C4.1292 12.1941 3.99101 12.0292 3.89567 11.8394C3.80032 11.6497 3.75045 11.4404 3.75 11.2281L3.74931 10.379ZM4.21475 14.1052C4.2802 14.0806 4.33658 14.0367 4.37638 13.9792C4.41618 13.9217 4.4375 13.8534 4.4375 13.7835V13.1703C4.47944 13.1854 4.52413 13.1923 4.56675 13.2046C4.62794 13.2218 4.68775 13.2411 4.75031 13.2527C4.84244 13.2699 4.93594 13.2768 5.02944 13.2809C5.06106 13.2823 5.09131 13.2906 5.12363 13.2906C5.15319 13.2906 5.18137 13.283 5.21094 13.2816C5.30787 13.2775 5.40413 13.2699 5.499 13.2527C5.56088 13.2411 5.62 13.2218 5.67981 13.2046C5.72381 13.1923 5.76919 13.1854 5.8125 13.1696V13.7835C5.8125 13.8534 5.83382 13.9217 5.87362 13.9792C5.91342 14.0367 5.9698 14.0806 6.03525 14.1052L6.50344 14.2806C6.12596 14.6232 5.63477 14.8135 5.125 14.8148C4.60938 14.8148 4.12056 14.6188 3.74587 14.2812L4.21475 14.1052Z" fill="#B6B8BF"/>
</svg>
