<svg width="24" height="24" viewBox="0 0 24 24" fill="none" xmlns="http://www.w3.org/2000/svg">
<path d="M17.4009 9.32077V6.37772C17.3988 6.31603 17.3822 6.2557 17.3523 6.20169C17.3224 6.14767 17.2802 6.1015 17.229 6.06695C17.1778 6.0324 17.1192 6.01046 17.058 6.00293C16.9967 5.99539 16.9345 6.00247 16.8765 6.02358L10.3064 8.64432H7.06171C6.75521 8.64569 6.45472 8.72948 6.19174 8.88692C5.92876 9.04436 5.71298 9.26965 5.56701 9.53916L5.28473 9.6406C4.90932 9.77186 4.584 10.0166 4.35382 10.3409C4.12365 10.6652 4 11.0531 4 11.4508C4 11.8485 4.12365 12.2364 4.35382 12.5607C4.584 12.885 4.90932 13.1297 5.28473 13.261L5.47542 13.3279C5.62811 13.7188 5.91915 14.0401 6.2932 14.2305L6.96984 18.6024C6.98299 18.6918 7.02709 18.7736 7.09445 18.8337C7.16181 18.8938 7.24814 18.9283 7.33837 18.9313L10.0243 18.9568H10.0263C10.081 18.9547 10.1347 18.941 10.1837 18.9166C10.2327 18.8922 10.276 18.8576 10.3106 18.8152C10.3461 18.7725 10.3722 18.7227 10.387 18.6691C10.4019 18.6156 10.4052 18.5595 10.3968 18.5046L9.75562 14.4099H10.3064L16.8731 17.0391C16.9173 17.0572 16.9646 17.0668 17.0124 17.0672C17.0894 17.0675 17.1648 17.0453 17.2294 17.0033C17.281 16.9694 17.3236 16.9235 17.3535 16.8695C17.3833 16.8155 17.3996 16.755 17.4009 16.6933V13.5845C18.5259 13.561 19.4906 12.6142 19.4906 11.4526C19.4906 10.2911 18.5259 9.34397 17.4009 9.32077ZM4.74417 11.4524C4.7435 11.2424 4.79989 11.0362 4.90731 10.8557C5.01472 10.6753 5.16914 10.5274 5.35406 10.4279V12.4774C5.16909 12.3778 5.01464 12.2298 4.90723 12.0493C4.79981 11.8688 4.74345 11.6625 4.74417 11.4524ZM6.10406 10.3581C6.10521 10.1039 6.20628 9.86033 6.38546 9.68001C6.56463 9.4997 6.80753 9.39708 7.06171 9.39432H9.99468V13.6599H7.06171C6.97787 13.6605 6.89433 13.6499 6.81327 13.6284C6.77245 13.6063 6.72799 13.5918 6.68202 13.5855C6.51114 13.5122 6.3654 13.3906 6.26271 13.2356C6.16003 13.0806 6.10488 12.899 6.10406 12.7131V10.3581ZM9.58762 18.1798L7.66218 18.1682L7.0807 14.4099H8.99648L9.58762 18.1798ZM16.6509 16.1396L10.7447 13.7859V9.28514L16.6509 6.93164V16.1396ZM17.4009 12.8347V10.0708C17.7599 10.082 18.1004 10.2326 18.3504 10.4905C18.6003 10.7484 18.7401 11.0935 18.7401 11.4526C18.7401 11.8118 18.6003 12.1569 18.3504 12.4148C18.1004 12.6727 17.7599 12.8232 17.4009 12.8345V12.8347Z" fill="#B6B8BF"/>
</svg>
