<svg width="24" height="24" viewBox="0 0 24 24" fill="none" xmlns="http://www.w3.org/2000/svg">
<path d="M15.3539 4.00003C15.3414 4.00117 15.3291 4.00311 15.3169 4.00581H7.95379C7.30256 4.00581 6.76903 4.53931 6.76903 5.19057V5.78295H6.18475C5.53352 5.78295 5 6.31644 5 6.9677V18.8152C5 19.4664 5.53352 20 6.18475 20H15.0704C15.7216 20 16.2552 19.4664 16.2552 18.8152V18.2229H16.8394C17.4907 18.2229 18.0242 17.6893 18.0242 17.0381V6.71663C18.0323 6.66419 18.0261 6.61054 18.0064 6.56128C17.9867 6.51203 17.954 6.46898 17.912 6.43664L15.5864 4.10763C15.5582 4.07343 15.5226 4.046 15.4824 4.02738C15.4421 4.00876 15.3982 3.99941 15.3539 4.00003ZM7.95379 4.59588H15.0623V5.78063C15.0623 6.43183 15.5958 6.96539 16.2471 6.96539H17.4318V17.0358C17.4318 17.3691 17.1727 17.6282 16.8394 17.6282H16.2552V8.49145C16.2633 8.43901 16.2571 8.38536 16.2374 8.3361C16.2176 8.28685 16.185 8.2438 16.1429 8.21146L13.8209 5.88939L13.8174 5.8836C13.7892 5.8494 13.7536 5.82198 13.7134 5.80336C13.6731 5.78473 13.6292 5.77539 13.5848 5.776C13.5724 5.77715 13.56 5.77908 13.5478 5.78179H7.36141V5.18941C7.36141 4.85608 7.62049 4.59703 7.95379 4.59703V4.59588ZM15.6547 5.01471L17.013 6.37301H16.2471C15.9138 6.37301 15.6547 6.1139 15.6547 5.78063V5.01471ZM6.18475 6.37301H13.2933V7.55776C13.2933 8.20896 13.8268 8.74252 14.478 8.74252H15.6628V18.8129C15.6628 19.1462 15.4037 19.4053 15.0704 19.4053H6.18475C5.85145 19.4053 5.59238 19.1462 5.59238 18.8129V6.96539C5.59238 6.63206 5.85145 6.37301 6.18475 6.37301ZM13.8857 6.79184L15.244 8.15014H14.478C14.1447 8.15014 13.8857 7.89104 13.8857 7.55776V6.79184ZM7.07332 8.15014C6.99477 8.15015 6.91944 8.18136 6.86389 8.2369C6.80835 8.29245 6.77714 8.36778 6.77713 8.44633V10.2235C6.77714 10.302 6.80835 10.3773 6.86389 10.4329C6.91944 10.4884 6.99477 10.5196 7.07332 10.5196H8.85045C8.929 10.5196 9.00434 10.4884 9.05988 10.4329C9.11542 10.3773 9.14663 10.302 9.14664 10.2235V8.44633C9.14663 8.36778 9.11542 8.29245 9.05988 8.2369C9.00434 8.18136 8.929 8.15015 8.85045 8.15014H7.07332ZM10.0387 8.15014C9.99943 8.14959 9.96046 8.15684 9.92404 8.17147C9.88762 8.18611 9.85447 8.20784 9.82652 8.2354C9.79857 8.26295 9.77637 8.29579 9.76122 8.33201C9.74607 8.36822 9.73827 8.40708 9.73827 8.44633C9.73827 8.48558 9.74607 8.52444 9.76122 8.56065C9.77637 8.59687 9.79857 8.6297 9.82652 8.65726C9.85447 8.68482 9.88762 8.70655 9.92404 8.72119C9.96046 8.73582 9.99943 8.74307 10.0387 8.74252H12.4082C12.4474 8.74307 12.4864 8.73582 12.5228 8.72119C12.5592 8.70655 12.5924 8.68482 12.6203 8.65726C12.6483 8.6297 12.6705 8.59687 12.6856 8.56065C12.7008 8.52444 12.7086 8.48558 12.7086 8.44633C12.7086 8.40708 12.7008 8.36822 12.6856 8.33201C12.6705 8.29579 12.6483 8.26295 12.6203 8.2354C12.5924 8.20784 12.5592 8.18611 12.5228 8.17147C12.4864 8.15684 12.4474 8.14959 12.4082 8.15014H10.0387ZM7.36951 8.74252H8.55426V9.92727H7.36951V8.74252ZM10.0387 9.3349C9.99943 9.33434 9.96046 9.34159 9.92404 9.35623C9.88762 9.37086 9.85447 9.39259 9.82652 9.42015C9.79857 9.44771 9.77637 9.48055 9.76122 9.51676C9.74607 9.55297 9.73827 9.59183 9.73827 9.63108C9.73827 9.67034 9.74607 9.7092 9.76122 9.74541C9.77637 9.78162 9.79857 9.81446 9.82652 9.84202C9.85447 9.86958 9.88762 9.8913 9.92404 9.90594C9.96046 9.92058 9.99943 9.92783 10.0387 9.92727H14.1726C14.2118 9.92783 14.2508 9.92058 14.2872 9.90594C14.3237 9.8913 14.3568 9.86958 14.3848 9.84202C14.4127 9.81446 14.4349 9.78162 14.45 9.74541C14.4652 9.7092 14.473 9.67034 14.473 9.63108C14.473 9.59183 14.4652 9.55297 14.45 9.51676C14.4349 9.48055 14.4127 9.44771 14.3848 9.42015C14.3568 9.39259 14.3237 9.37086 14.2872 9.35623C14.2508 9.34159 14.2118 9.33434 14.1726 9.3349H10.0387ZM7.07332 11.7044C6.99477 11.7044 6.91944 11.7356 6.86389 11.7912C6.80835 11.8467 6.77714 11.922 6.77713 12.0006V13.7777C6.77714 13.8563 6.80835 13.9316 6.86389 13.9872C6.91944 14.0427 6.99477 14.0739 7.07332 14.0739H8.85045C8.929 14.0739 9.00434 14.0427 9.05988 13.9872C9.11542 13.9316 9.14663 13.8563 9.14664 13.7777V12.0006C9.14663 11.922 9.11542 11.8467 9.05988 11.7912C9.00434 11.7356 8.929 11.7044 8.85045 11.7044H7.07332ZM10.0387 11.7044C9.99943 11.7038 9.96046 11.7111 9.92404 11.7257C9.88762 11.7404 9.85447 11.7621 9.82652 11.7897C9.79857 11.8172 9.77637 11.8501 9.76122 11.8863C9.74607 11.9225 9.73827 11.9613 9.73827 12.0006C9.73827 12.0398 9.74607 12.0787 9.76122 12.1149C9.77637 12.1511 9.79857 12.184 9.82652 12.2115C9.85447 12.2391 9.88762 12.2608 9.92404 12.2754C9.96046 12.2901 9.99943 12.2973 10.0387 12.2968H12.4082C12.4474 12.2973 12.4864 12.2901 12.5228 12.2754C12.5592 12.2608 12.5924 12.2391 12.6203 12.2115C12.6483 12.184 12.6705 12.1511 12.6856 12.1149C12.7008 12.0787 12.7086 12.0398 12.7086 12.0006C12.7086 11.9613 12.7008 11.9225 12.6856 11.8863C12.6705 11.8501 12.6483 11.8172 12.6203 11.7897C12.5924 11.7621 12.5592 11.7404 12.5228 11.7257C12.4864 11.7111 12.4474 11.7038 12.4082 11.7044H10.0387ZM7.36951 12.2968H8.55426V13.4815H7.36951V12.2968ZM10.0387 12.8892C9.99943 12.8886 9.96046 12.8959 9.92404 12.9105C9.88762 12.9251 9.85447 12.9469 9.82652 12.9744C9.79857 13.002 9.77637 13.0348 9.76122 13.071C9.74607 13.1072 9.73827 13.1461 9.73827 13.1853C9.73827 13.2246 9.74607 13.2635 9.76122 13.2997C9.77637 13.3359 9.79857 13.3687 9.82652 13.3963C9.85447 13.4238 9.88762 13.4456 9.92404 13.4602C9.96046 13.4748 9.99943 13.4821 10.0387 13.4815H14.1726C14.2118 13.4821 14.2508 13.4748 14.2872 13.4602C14.3237 13.4456 14.3568 13.4238 14.3848 13.3963C14.4127 13.3687 14.4349 13.3359 14.45 13.2997C14.4652 13.2635 14.473 13.2246 14.473 13.1853C14.473 13.1461 14.4652 13.1072 14.45 13.071C14.4349 13.0348 14.4127 13.002 14.3848 12.9744C14.3568 12.9469 14.3237 12.9251 14.2872 12.9105C14.2508 12.8959 14.2118 12.8886 14.1726 12.8892H10.0387ZM7.07332 15.2587C6.99477 15.2587 6.91944 15.2899 6.86389 15.3454C6.80835 15.401 6.77714 15.4763 6.77713 15.5549V17.332C6.77714 17.4105 6.80835 17.4859 6.86389 17.5414C6.91944 17.597 6.99477 17.6282 7.07332 17.6282H8.85045C8.929 17.6282 9.00434 17.597 9.05988 17.5414C9.11542 17.4859 9.14663 17.4105 9.14664 17.332V15.5549C9.14663 15.4763 9.11542 15.401 9.05988 15.3454C9.00434 15.2899 8.929 15.2587 8.85045 15.2587H7.07332ZM10.0387 15.2587C9.99943 15.2581 9.96046 15.2654 9.92404 15.28C9.88762 15.2946 9.85447 15.3164 9.82652 15.3439C9.79857 15.3715 9.77637 15.4043 9.76122 15.4405C9.74607 15.4767 9.73827 15.5156 9.73827 15.5549C9.73827 15.5941 9.74607 15.633 9.76122 15.6692C9.77637 15.7054 9.79857 15.7382 9.82652 15.7658C9.85447 15.7933 9.88762 15.8151 9.92404 15.8297C9.96046 15.8443 9.99943 15.8516 10.0387 15.851H12.4082C12.4474 15.8516 12.4864 15.8443 12.5228 15.8297C12.5592 15.8151 12.5924 15.7933 12.6203 15.7658C12.6483 15.7382 12.6705 15.7054 12.6856 15.6692C12.7008 15.633 12.7086 15.5941 12.7086 15.5549C12.7086 15.5156 12.7008 15.4767 12.6856 15.4405C12.6705 15.4043 12.6483 15.3715 12.6203 15.3439C12.5924 15.3164 12.5592 15.2946 12.5228 15.28C12.4864 15.2654 12.4474 15.2581 12.4082 15.2587H10.0387ZM7.36951 15.851H8.55426V17.0358H7.36951V15.851ZM10.0387 16.4434C9.99943 16.4429 9.96046 16.4501 9.92404 16.4648C9.88762 16.4794 9.85447 16.5011 9.82652 16.5287C9.79857 16.5562 9.77637 16.5891 9.76122 16.6253C9.74607 16.6615 9.73827 16.7004 9.73827 16.7396C9.73827 16.7789 9.74607 16.8177 9.76122 16.8539C9.77637 16.8901 9.79857 16.923 9.82652 16.9505C9.85447 16.9781 9.88762 16.9998 9.92404 17.0145C9.96046 17.0291 9.99943 17.0364 10.0387 17.0358H14.1726C14.2118 17.0364 14.2508 17.0291 14.2872 17.0145C14.3237 16.9998 14.3568 16.9781 14.3848 16.9505C14.4127 16.923 14.4349 16.8901 14.45 16.8539C14.4652 16.8177 14.473 16.7789 14.473 16.7396C14.473 16.7004 14.4652 16.6615 14.45 16.6253C14.4349 16.5891 14.4127 16.5562 14.3848 16.5287C14.3568 16.5011 14.3237 16.4794 14.2872 16.4648C14.2508 16.4501 14.2118 16.4429 14.1726 16.4434H10.0387Z" fill="#B6B8BF"/>
</svg>
