<?xml version="1.0"?>
<svg width="32" height="32" xmlns="http://www.w3.org/2000/svg">
  <style type="text/css">.st0{fill:none;stroke:#A8AABC;stroke-width:0.6999;stroke-miterlimit:10;}</style>
  <g class="layer">
    <path class="st0" d="m26.6,14.2l-2.8,-0.5c-0.2,-0.6 -0.4,-1.1 -0.7,-1.6l1.7,-2.4c0.1,-0.2 0.1,-0.5 -0.1,-0.6l-1.9,-1.9c-0.2,-0.2 -0.4,-0.2 -0.6,0l-2.3,1.7c-0.5,-0.3 -1.1,-0.5 -1.6,-0.7l-0.5,-2.8c0,-0.2 -0.2,-0.4 -0.5,-0.4l-2.6,0c-0.2,0 -0.4,0.2 -0.5,0.4l-0.5,2.8c-0.5,0.1 -1.1,0.4 -1.6,0.7l-2.3,-1.7c-0.2,-0.1 -0.5,-0.1 -0.7,0l-1.8,1.9c-0.2,0.2 -0.2,0.4 -0.1,0.6l1.6,2.3c-0.2,0.6 -0.5,1.1 -0.6,1.7l-2.8,0.5c-0.2,0 -0.4,0.2 -0.4,0.5l0,2.6c0,0.2 0.2,0.4 0.4,0.5l2.8,0.5c0.2,0.6 0.4,1.1 0.7,1.7l-1.7,2.3c-0.1,0.2 -0.1,0.5 0.1,0.6l1.9,1.9c0.2,0.2 0.4,0.2 0.6,0.1l2.3,-1.6c0.5,0.3 1.1,0.5 1.7,0.7l0.5,2.8c0,0.2 0.2,0.4 0.5,0.4l2.6,0c0.2,0 0.4,-0.2 0.5,-0.4l0.5,-2.8c0.6,-0.2 1.1,-0.4 1.6,-0.7l2.4,1.7c0.2,0.1 0.5,0.1 0.6,-0.1l1.9,-1.9c0.2,-0.2 0.2,-0.4 0,-0.6l-1.7,-2.3c0.3,-0.5 0.5,-1.1 0.7,-1.6l2.8,-0.5c0.2,0 0.4,-0.2 0.4,-0.5l0,-2.6c-0.1,-0.5 -0.2,-0.7 -0.5,-0.7zm-10.6,5.2c-1.9,0 -3.4,-1.5 -3.4,-3.4s1.5,-3.4 3.4,-3.4s3.4,1.5 3.4,3.4s-1.5,3.4 -3.4,3.4z" fill="black" id="svg_1"/>
  </g>
</svg>
