<svg width="24" height="24" viewBox="0 0 24 24" fill="none" xmlns="http://www.w3.org/2000/svg">
<path d="M13.0145 5.67981H12.6819V12.4989L7.82536 17.3555L8.0582 17.5883C9.35549 18.9189 11.1185 19.6507 12.9813 19.6507C16.8399 19.6507 20 16.5239 20 12.6653C20 8.80664 16.8732 5.67981 13.0145 5.67981ZM12.9813 18.9854C11.4179 18.9854 9.92097 18.42 8.75674 17.3555L13.3139 12.7983V6.34508C16.6403 6.5114 19.3014 9.30559 19.3014 12.6653C19.3014 16.158 16.474 18.9854 12.9813 18.9854Z" fill="#B6B8BF"/>
<path fill-rule="evenodd" clip-rule="evenodd" d="M12.6319 5.62981H13.0145C16.9008 5.62981 20.05 8.77902 20.05 12.6653C20.05 16.5518 16.8672 19.7007 12.9813 19.7007C11.1053 19.7007 9.32949 18.9637 8.02264 17.6235L7.75465 17.3555L12.6319 12.4782V5.62981ZM12.7319 5.72981V12.5197L7.89607 17.3555L8.09355 17.553C9.38128 18.8737 11.1317 19.6007 12.9813 19.6007C16.8126 19.6007 19.95 16.496 19.95 12.6653C19.95 8.83425 16.8455 5.72981 13.0145 5.72981H12.7319ZM13.2639 6.29252L13.3164 6.29514C16.6695 6.4628 19.3514 9.27906 19.3514 12.6653C19.3514 16.1856 16.5016 19.0354 12.9813 19.0354C11.4057 19.0354 9.89665 18.4655 8.723 17.3924L8.68442 17.3571L13.2639 12.7776V6.29252ZM13.3639 6.39787V12.819L8.82923 17.3537C9.9784 18.3869 11.4474 18.9354 12.9813 18.9354C16.4464 18.9354 19.2514 16.1304 19.2514 12.6653C19.2514 9.34982 16.6391 6.58945 13.3639 6.39787Z" fill="#B6B8BF"/>
<path d="M4.03315 13.0312L4.06643 13.3638C4.19947 14.9605 4.93129 16.4906 6.06227 17.6216L6.29511 17.8545L11.9167 12.2328L4.03315 13.0312ZM4.73173 13.6299L10.0872 13.0977L6.29514 16.8898C5.46352 15.9917 4.93129 14.8274 4.73173 13.6299Z" fill="#B6B8BF"/>
<path fill-rule="evenodd" clip-rule="evenodd" d="M12.0513 12.1689L6.29511 17.9252L6.02692 17.657C4.88798 16.518 4.15078 14.9771 4.01663 13.3684L3.97843 12.9864L12.0513 12.1689ZM4.08787 13.0759L4.11618 13.3588C4.2482 14.9433 4.9747 16.4633 6.09763 17.5863L6.29511 17.7837L11.7821 12.2967L4.08787 13.0759ZM10.2215 13.0341L6.29376 16.9619L6.25846 16.9238C5.41957 16.0178 4.88342 14.8443 4.68241 13.6381L4.67363 13.5854L10.2215 13.0341ZM4.79005 13.6744C4.99187 14.8276 5.50451 15.9458 6.2967 16.8175L9.95293 13.1613L4.79005 13.6744Z" fill="#B6B8BF"/>
<path d="M10.9854 4.34926C7.12678 4.34926 3.99995 7.47608 3.99995 11.3347C3.99995 11.5676 3.99995 11.8004 4.03323 12.0333L4.06651 12.3659L11.3181 11.6341V4.34926H10.9854ZM10.6528 11.0353L4.66522 11.6341C4.66522 11.5343 4.66522 11.4345 4.66522 11.3347C4.66522 7.94176 7.32634 5.18084 10.6528 5.01453V11.0353Z" fill="#B6B8BF"/>
<path fill-rule="evenodd" clip-rule="evenodd" d="M3.94995 11.3347C3.94995 7.44847 7.09916 4.29926 10.9854 4.29926H11.3681V11.6793L4.02174 12.4207L3.98358 12.0393C3.94995 11.8033 3.94995 11.5678 3.94995 11.3364V11.3347ZM10.9854 4.39926C7.15439 4.39926 4.04995 7.50369 4.04995 11.3347C4.04995 11.5681 4.05003 11.7975 4.08273 12.0262L4.08302 12.0283L4.11128 12.3111L11.2681 11.5889V4.39926H10.9854ZM10.7028 4.96196V11.0806L4.61522 11.6893V11.3347C4.61522 7.91506 7.29728 5.13223 10.6503 4.96459L10.7028 4.96196ZM10.6028 5.06731C7.32743 5.25855 4.71522 7.98632 4.71522 11.3347V11.578L10.6028 10.9901V5.06731Z" fill="#B6B8BF"/>
</svg>
