<svg width="14" height="18" viewBox="0 0 14 18" fill="none" xmlns="http://www.w3.org/2000/svg">
<path fill-rule="evenodd" clip-rule="evenodd" d="M8.66666 0.666626H5.33333C4.87309 0.666626 4.49999 1.03972 4.49999 1.49996L1.33333 1.49996C0.781043 1.49996 0.333328 1.94767 0.333328 2.49996V3.16663H13.6667V2.49996C13.6667 1.94767 13.2189 1.49996 12.6667 1.49996L9.49999 1.49996C9.49999 1.03972 9.1269 0.666626 8.66666 0.666626ZM12.8333 3.99996L11.9987 16.4004C11.9633 16.9255 11.5272 17.3333 11.0009 17.3333H2.99905C2.47283 17.3333 2.03665 16.9255 2.00131 16.4004L1.16666 3.99996H12.8333Z" fill="#A8AABC"/>
<path d="M4.5 6.5V14.8333" stroke="white" stroke-width="0.7"/>
<path d="M7 6.5V14.8333" stroke="white" stroke-width="0.7"/>
<path d="M9.5 6.5V14.8333" stroke="white" stroke-width="0.7"/>
</svg>
