<svg width="44" height="44" viewBox="0 0 44 44" fill="none" xmlns="http://www.w3.org/2000/svg">
  <path d="M0 0.0229988H44V34.6297V44L0 34.6297V0.0229988Z" fill="#EF881E"/>
  <path fill-rule="evenodd" clip-rule="evenodd" d="M36.4623 6.37514L36.7296 12.431H35.7358L35.996 6.64954C36.1027 6.53434 36.203 6.40494 36.2955 6.25694L36.4623 6.37514ZM35.8737 4.50692C36.3612 3.97552 36.8224 3.50111 37.6376 3.57271C38.2194 3.62371 38.727 3.97992 39.1059 4.40132C38.4847 4.60552 37.6573 4.68972 37.3973 4.73852C37.7436 4.97793 38.4056 5.62193 38.6019 6.00813C38.7477 6.29554 38.8245 6.64034 38.8227 7.04954C38.6159 6.93614 38.4087 6.82814 38.2023 6.72074C37.524 6.36754 36.6841 5.92593 36.1263 5.39773C35.6848 6.32894 35.2828 6.59794 34.3466 7.03874C33.952 7.22455 33.542 7.41775 33.1446 7.71895C33.124 7.27395 33.1887 6.88154 33.3352 6.53974C33.5438 6.05314 34.2055 5.37313 34.595 4.99233C34.0634 4.92472 33.5277 4.74632 33.0342 4.54192C33.4347 4.20712 33.8673 3.98112 34.2888 3.89832C35.0058 3.75771 35.421 4.01212 35.8737 4.50692ZM40 4.61952C39.4109 3.82571 38.7529 3.10211 37.6868 3.00851C36.9843 2.94691 36.3546 3.22431 35.8545 3.69611C35.3535 3.32411 34.7709 3.22471 34.1784 3.34091C33.2184 3.52951 32.6263 4.11192 32 4.75692C32.4912 4.93592 33.0336 5.19173 33.525 5.32613C33.2093 5.61113 32.9689 5.94093 32.8074 6.31774C32.4253 7.20835 32.5767 7.99155 32.7354 8.89316C33.3981 8.21476 33.7003 7.97275 34.5936 7.55215C34.8734 7.42035 35.1459 7.29195 35.4004 7.13295L35.1362 13H37.3283L37.0524 6.74654C37.3443 6.91574 37.6389 7.06914 37.9348 7.22315C38.408 7.46975 38.8532 7.72115 39.3099 7.99395C39.4077 7.20355 39.4944 6.50554 39.1138 5.75493C38.9838 5.49893 38.8126 5.27573 38.6041 5.08253C39.1758 5.02293 39.5057 4.86452 40 4.61952Z" fill="white"/>
</svg>
