<svg width="44" height="44" viewBox="0 0 44 44" fill="none" xmlns="http://www.w3.org/2000/svg">
  <path d="M0 0.0229988H44V34.6297V44L0 34.6297V0.0229988Z" fill="#EF5350"/>
  <path fill-rule="evenodd" clip-rule="evenodd" d="M35.0769 4.36202C33.9688 4.80357 33.1835 5.86225 33.1835 7.10642V9.53085L32.1222 10.5608C32.047 10.6303 32 10.7293 32 10.8392V10.889C32 11.3094 32.3444 11.6502 32.7692 11.6502H34.7021C34.7888 12.4098 35.4401 13 36.2308 13C37.0214 13 37.6728 12.4098 37.7594 11.6502H39.6923C40.1172 11.6502 40.4615 11.3094 40.4615 10.889V10.8392C40.4616 10.7293 40.4146 10.6303 40.3393 10.5608L39.2782 9.53096V7.10654C39.2781 5.86233 38.4928 4.8035 37.3846 4.36198V3.95154C37.3846 3.45561 36.9986 3.21123 36.8469 3.13615C36.6494 3.03842 36.4305 3 36.2308 3C36.031 3 35.8121 3.03842 35.6147 3.13615C35.463 3.21123 35.0769 3.45561 35.0769 3.95154V4.36202ZM36.5873 4.14185C36.5853 4.14842 36.5832 4.15489 36.5811 4.16127C36.4661 4.14844 36.3492 4.14185 36.2308 4.14185C36.1124 4.14185 35.9955 4.14845 35.8805 4.16128C35.8783 4.1549 35.8762 4.14842 35.8742 4.14185H35.8462V3.95154C35.8462 3.84645 36.0182 3.76123 36.2308 3.76123C36.4433 3.76123 36.6154 3.84645 36.6154 3.95154V4.14185H36.5873ZM36.9801 11.6502H35.4814C35.5605 11.9875 35.866 12.2388 36.2308 12.2388C36.5956 12.2388 36.9011 11.9875 36.9801 11.6502ZM33.9527 7.10642C33.9528 5.89652 34.9656 4.90308 36.2308 4.90308C37.4961 4.90308 38.5089 5.89652 38.5089 7.10642H36.2308H33.9527ZM33.9527 7.10642H36.2308H38.5089V9.53096C38.5089 9.73542 38.592 9.93131 38.7396 10.0745L39.5789 10.889H32.8826L33.8347 9.96504C33.9073 9.896 33.9527 9.79892 33.9527 9.69069V7.10642Z" fill="white"/>
</svg>
