<svg id="5084ffb8-772b-4cfb-b3cf-6c101082ecb6" data-name="Слой 1" xmlns="http://www.w3.org/2000/svg" viewBox="0 0 100 100">
  <defs>
    <style>
      .cbf42eae-b76b-424d-bd02-4cace21cb40f {
        fill: #a0bfff;
      }

      .a2c758d3-d63c-4508-905a-ce6e2d0f7f79 {
        fill: #69f;
      }
    </style>
  </defs>
  <title>swan-hero-logo</title>
  <g>
    <path d="M100,50A50,50,0,1,1,50,0,50,50,0,0,1,100,50Z" transform="translate(0 0)"/>
    <path class="cbf42eae-b76b-424d-bd02-4cace21cb40f" d="M67.86,47c.74-2.27,1-13.81,1-13.81.65-6.17,4.14-7.07,4.14-7.07,2-.64,4.57.11,5.42.22s.43-.59.43-.59a11.61,11.61,0,0,0-8.92-3.71c-3.27.28-4.22,4.18-4.22,4.18A46.66,46.66,0,0,0,64,34.54c-1,6.63-2.74,9.83-3.86,11.28a5.6,5.6,0,0,1-3,1.89l-.15,0c-3,.71-6.47-.51-7.64-1l-.61-.27h0C46.55,45.46,31,39,0,48.47H0l67.51,34L95.06,28.32C74.84,32.92,68.7,45.16,67.86,47Z" transform="translate(0 0)"/>
    <path class="a2c758d3-d63c-4508-905a-ce6e2d0f7f79" d="M84.8,48.47S63.56,80.21,0,48.47l67.51,34Z" transform="translate(0 0)"/>
  </g>
</svg>
