<svg xmlns="http://www.w3.org/2000/svg" xmlns:xlink="http://www.w3.org/1999/xlink" viewBox="0 0 1050 1080">
  <defs>
    <style>
      .a {
        fill: url(#a);
      }

      .b {
        fill: #00dbff;
        opacity: 0.21;
      }

      .c {
        fill: none;
        stroke: #00dbff;
        stroke-miterlimit: 10;
        stroke-width: 3px;
      }

      .d {
        fill: #004693;
      }

      .e {
        fill: url(#b);
      }

      .f {
        fill: #0077e2;
      }

      .g {
        fill: #002c4c;
      }

      .h {
        opacity: 0.74;
      }

      .i {
        fill: url(#c);
      }

      .j {
        fill: url(#d);
      }

      .k {
        fill: url(#e);
      }

      .l {
        fill: url(#f);
      }

      .m {
        fill: url(#g);
      }

      .n {
        fill: url(#h);
      }

      .o {
        fill: url(#i);
      }

      .p {
        fill: url(#j);
      }

      .q {
        fill: url(#k);
      }

      .r {
        fill: url(#l);
      }

      .s {
        fill: url(#m);
      }

      .t {
        fill: url(#n);
      }

      .u {
        fill: url(#o);
      }

      .v {
        opacity: 0.5;
        fill: url(#p);
      }
    </style>
    <linearGradient id="a" data-name="Безымянный градиент 12" x1="-7.5" y1="7.5" x2="720.5" y2="735.5" gradientUnits="userSpaceOnUse">
      <stop offset="0" stop-color="#a0bfff"/>
      <stop offset="1" stop-color="#69f"/>
    </linearGradient>
    <linearGradient id="b" x1="378.71" y1="524.66" x2="687.49" y2="836.1" gradientTransform="translate(24.25 43.59) rotate(-0.25)" xlink:href="#a"/>
    <linearGradient id="c" x1="595.75" y1="592.75" x2="791.75" y2="396.75" xlink:href="#a"/>
    <linearGradient id="d" x1="171.64" y1="483.29" x2="361" y2="483.29" xlink:href="#a"/>
    <linearGradient id="e" x1="242.69" y1="483.27" x2="289.95" y2="483.27" xlink:href="#a"/>
    <linearGradient id="f" x1="171.64" y1="448.29" x2="361" y2="448.29" xlink:href="#a"/>
    <linearGradient id="g" x1="242.69" y1="448.27" x2="289.95" y2="448.27" xlink:href="#a"/>
    <linearGradient id="h" x1="171.64" y1="413.29" x2="361" y2="413.29" xlink:href="#a"/>
    <linearGradient id="i" x1="242.69" y1="413.27" x2="289.95" y2="413.27" xlink:href="#a"/>
    <linearGradient id="j" x1="171.64" y1="560.06" x2="248.04" y2="560.06" xlink:href="#a"/>
    <linearGradient id="k" x1="200.3" y1="560.05" x2="219.37" y2="560.05" xlink:href="#a"/>
    <linearGradient id="l" x1="764.64" y1="930.29" x2="954" y2="930.29" xlink:href="#a"/>
    <linearGradient id="m" x1="835.69" y1="930.27" x2="882.95" y2="930.27" xlink:href="#a"/>
    <linearGradient id="n" data-name="Безымянный градиент 51" x1="194.44" y1="412.67" x2="337.56" y2="269.56" gradientUnits="userSpaceOnUse">
      <stop offset="0" stop-color="#00dbff"/>
      <stop offset="0.1" stop-color="#00e3ff" stop-opacity="0.79"/>
      <stop offset="0.38" stop-color="#00f7ff" stop-opacity="0.23"/>
      <stop offset="0.5" stop-color="aqua" stop-opacity="0"/>
    </linearGradient>
    <linearGradient id="o" x1="859.01" y1="971.25" x2="859.01" y2="786" xlink:href="#n"/>
    <linearGradient id="p" data-name="Безымянный градиент 69" x1="696.48" y1="716" x2="696.48" y2="1.69" gradientUnits="userSpaceOnUse">
      <stop offset="0" stop-color="#00dbff"/>
      <stop offset="0.18" stop-color="#00e3ff" stop-opacity="0.79"/>
      <stop offset="0.68" stop-color="#00f7ff" stop-opacity="0.23"/>
      <stop offset="0.9" stop-color="aqua" stop-opacity="0"/>
    </linearGradient>
  </defs>
  <title>Swan Intraner Background</title>
  <polygon class="a" points="722 734 0 1080 0 0 1050 0 722 734"/>
  <g>
    <path class="b" d="M224.56,682.37l.19-131.14-30.19,24v85.4C204.62,667.79,214.53,675.15,224.56,682.37Z"/>
    <path class="b" d="M200.35,705.85c7.82,6.54,16,12.67,24.15,18.77l0-30c-10.07-7.14-20-14.51-30-21.74v27.76C196.47,702.45,198.4,704.21,200.35,705.85Z"/>
    <line class="c" x1="305.5" y1="522.5" x2="444.5" y2="601.5"/>
    <polyline class="c" points="191.5 553.5 284.5 606.5 366.95 557.42"/>
    <line class="c" x1="687.43" y1="835" x2="814.94" y2="908.61"/>
    <g>
      <path class="d" d="M281.59,697.88l239-139.3a13.72,13.72,0,0,1,13.8,0L839,735.66a13.72,13.72,0,0,1,0,23.71L602.61,897.17a13.72,13.72,0,0,1-13.71.06L281.69,721.64A13.72,13.72,0,0,1,281.59,697.88Z"/>
      <path class="e" d="M281.56,690.93l239-139.3a13.72,13.72,0,0,1,13.8,0L839,728.71a13.72,13.72,0,0,1,0,23.71L602.58,890.22a13.72,13.72,0,0,1-13.71.06L281.66,714.69A13.72,13.72,0,0,1,281.56,690.93Z"/>
      <path class="d" d="M393,752.52l77.28-45a4.44,4.44,0,0,1,4.46,0l98.51,57.27a4.44,4.44,0,0,1,0,7.67L496.86,817a4.44,4.44,0,0,1-4.43,0L393.08,760.2A4.44,4.44,0,0,1,393,752.52Z"/>
    </g>
    <g>
      <path class="f" d="M533.06,265.62,528.6,542.21a13.72,13.72,0,0,0,6.75,12L838.91,733.17a13.72,13.72,0,0,0,20.68-11.6L864,448a13.72,13.72,0,0,0-6.66-12L553.82,254.08A13.72,13.72,0,0,0,533.06,265.62Z"/>
      <path class="g" d="M530,267l-4.46,276.58a13.72,13.72,0,0,0,6.75,12L835.83,734.54a13.72,13.72,0,0,0,20.68-11.6l4.41-273.6a13.72,13.72,0,0,0-6.66-12L550.75,255.46A13.72,13.72,0,0,0,530,267Z"/>
    </g>
    <g>
      <path class="d" d="M482.32,683l-70.76-40.89a7,7,0,0,1-2.54-9.5h0a7,7,0,0,1,9.5-2.54L496.22,675"/>
      <path class="d" d="M500.56,677.37l206.7,119.45a7,7,0,0,1,2.54,9.5h0a7,7,0,0,1-9.5,2.54L486.67,685.4"/>
      <path class="d" d="M499.26,669.63,428.5,628.74a7,7,0,0,1-2.54-9.5h0a7,7,0,0,1,9.5-2.54l77.71,44.9"/>
      <path class="d" d="M517.51,664l206.7,119.45a7,7,0,0,1,2.54,9.5h0a7,7,0,0,1-9.5,2.54L503.61,672"/>
      <path class="d" d="M518.14,658.91,447.37,618a7,7,0,0,1-2.54-9.5h0a7,7,0,0,1,9.5-2.54L532,650.89"/>
      <path class="d" d="M536.38,653.27l206.7,119.45a7,7,0,0,1,2.54,9.5h0a7,7,0,0,1-9.5,2.54L522.48,661.29"/>
      <path class="d" d="M536.09,646.57l-70.76-40.89a7,7,0,0,1-2.54-9.5h0a7,7,0,0,1,9.5-2.54L550,638.54"/>
      <path class="d" d="M554.33,640.92,761,760.37a7,7,0,0,1,2.54,9.5h0a7,7,0,0,1-9.5,2.54L540.44,648.94"/>
      <path class="d" d="M555.21,635.44l-70.76-40.89a7,7,0,0,1-2.54-9.5h0a7,7,0,0,1,9.5-2.54l77.71,44.91"/>
      <path class="d" d="M573.45,629.8l206.7,119.45a7,7,0,0,1,2.54,9.5h0a7,7,0,0,1-9.5,2.54L559.55,637.82"/>
    </g>
  </g>
  <polygon class="i" points="545 276 844 449 840 716 540 537 545 276"/>
  <g>
    <polygon class="g" points="171.64 483.3 171.64 496.96 266.32 551.63 361 496.96 361 483.3 171.64 483.3"/>
    <polygon class="j" points="171.64 483.3 266.32 428.63 361 483.3 266.32 537.96 171.64 483.3"/>
    <polygon class="d" points="195.31 483.3 266.32 442.3 337.17 483.07 266.24 524.25 195.31 483.3"/>
    <polygon class="k" points="242.69 483.27 266.24 469.58 289.95 483.27 266.32 496.96 242.69 483.27"/>
  </g>
  <g>
    <polygon class="g" points="171.64 448.3 171.64 461.96 266.32 516.63 361 461.96 361 448.3 171.64 448.3"/>
    <polygon class="l" points="171.64 448.3 266.32 393.63 361 448.3 266.32 502.96 171.64 448.3"/>
    <polygon class="d" points="195.31 448.3 266.32 407.3 337.17 448.07 266.24 489.25 195.31 448.3"/>
    <polygon class="m" points="242.69 448.27 266.24 434.58 289.95 448.27 266.32 461.96 242.69 448.27"/>
  </g>
  <g>
    <polygon class="g" points="171.64 413.3 171.64 426.96 266.32 481.63 361 426.96 361 413.3 171.64 413.3"/>
    <polygon class="n" points="171.64 413.3 266.32 358.63 361 413.3 266.32 467.96 171.64 413.3"/>
    <polygon class="d" points="195.31 413.3 266.32 372.3 337.17 413.07 266.24 454.25 195.31 413.3"/>
    <polygon class="o" points="242.69 413.27 266.24 399.58 289.95 413.27 266.32 426.96 242.69 413.27"/>
  </g>
  <g>
    <polygon class="g" points="171.64 560.06 171.64 565.57 209.84 587.63 248.04 565.57 248.04 560.06 171.64 560.06"/>
    <polygon class="p" points="171.64 560.06 209.84 538 248.04 560.06 209.84 582.11 171.64 560.06"/>
    <polygon class="d" points="181.19 560.06 209.84 543.51 238.42 559.97 209.81 576.58 181.19 560.06"/>
    <polygon class="q" points="200.3 560.05 209.81 554.52 219.37 560.05 209.84 565.57 200.3 560.05"/>
  </g>
  <g>
    <polygon class="g" points="764.64 930.29 764.64 943.96 859.32 998.63 954 943.96 954 930.29 764.64 930.29"/>
    <polygon class="r" points="764.64 930.29 859.32 875.63 954 930.29 859.32 984.96 764.64 930.29"/>
    <polygon class="d" points="788.31 930.29 859.32 889.3 930.16 930.07 859.24 971.25 788.31 930.29"/>
    <polygon class="s" points="835.69 930.27 859.24 916.58 882.95 930.27 859.32 943.96 835.69 930.27"/>
  </g>
  <polygon class="d" points="565 324 819 468 819 478 565 334 565 324"/>
  <polygon class="d" points="565 363 565 386 616 416 616 393 565 363"/>
  <polygon class="d" points="565 395 565 418 616 448 616 425 565 395"/>
  <polygon class="g" points="565 426 565 449 616 479 616 456 565 426"/>
  <polygon class="d" points="630 401 630 424 681 454 681 431 630 401"/>
  <polygon class="d" points="630 432 630 455 681 485 681 462 630 432"/>
  <polygon class="d" points="630 463 630 486 681 516 681 493 630 463"/>
  <polygon class="d" points="630 494 630 517 681 547 681 524 630 494"/>
  <polygon class="d" points="630 525 630 548 681 578 681 555 630 525"/>
  <polygon class="d" points="698 441 698 464 749 494 749 471 698 441"/>
  <polygon class="g" points="764 478 762 644 813 675 814 507 764 478"/>
  <polygon class="t" points="195 413.22 266.24 454.25 337 413.22 337 269 195 269 195 413.22"/>
  <polygon class="u" points="788.01 930.22 859.25 971.25 930.01 930.22 930.01 786 788.01 786 788.01 930.22"/>
  <polygon class="v" points="540 537 840 716 852.95 2.25 551.65 1.69 540 537"/>
</svg>
